<svg width="121" height="66" viewBox="0 0 121 66" fill="none" xmlns="http://www.w3.org/2000/svg">
<rect x="1" y="1" width="118" height="58" stroke="black" stroke-width="2"/>
<path d="M14.3872 30.7837H7.87451V42H4.19922V14.2734H13.3779C16.501 14.2734 18.9004 14.9844 20.5762 16.4062C22.2646 17.8281 23.1089 19.8975 23.1089 22.6143C23.1089 24.3408 22.6392 25.8452 21.6997 27.1274C20.7729 28.4097 19.478 29.3682 17.8149 30.0029L24.3276 41.7715V42H20.4048L14.3872 30.7837ZM7.87451 27.7939H13.4922C15.3076 27.7939 16.7485 27.3242 17.8149 26.3848C18.894 25.4453 19.4336 24.1885 19.4336 22.6143C19.4336 20.9004 18.9194 19.5864 17.8911 18.6724C16.8755 17.7583 15.4028 17.2949 13.4731 17.2822H7.87451V27.7939ZM36.2485 42.3809C33.4556 42.3809 31.1831 41.4668 29.4312 39.6387C27.6792 37.7979 26.8032 35.3413 26.8032 32.269V31.6216C26.8032 29.5776 27.1904 27.7559 27.9648 26.1562C28.752 24.5439 29.8438 23.2871 31.2402 22.3857C32.6494 21.4717 34.1729 21.0146 35.8105 21.0146C38.4893 21.0146 40.5713 21.897 42.0566 23.6616C43.542 25.4263 44.2847 27.9526 44.2847 31.2407V32.707H30.3262C30.377 34.7383 30.9673 36.3823 32.0972 37.6392C33.2397 38.8833 34.687 39.5054 36.439 39.5054C37.6831 39.5054 38.7368 39.2515 39.6001 38.7437C40.4634 38.2358 41.2188 37.563 41.8662 36.7251L44.0181 38.4009C42.2915 41.0542 39.7017 42.3809 36.2485 42.3809ZM35.8105 23.9092C34.3887 23.9092 33.1953 24.4297 32.2305 25.4707C31.2656 26.499 30.6689 27.9463 30.4404 29.8125H40.7617V29.5459C40.6602 27.7559 40.1777 26.3721 39.3145 25.3945C38.4512 24.4043 37.2832 23.9092 35.8105 23.9092ZM65.7842 31.9263C65.7842 35.062 65.0669 37.5884 63.6323 39.5054C62.1978 41.4224 60.2554 42.3809 57.8052 42.3809C55.3042 42.3809 53.3364 41.5874 51.9019 40.0005V49.9219H48.3789V21.3955H51.5972L51.7686 23.6807C53.2031 21.9033 55.1963 21.0146 57.748 21.0146C60.2236 21.0146 62.1787 21.9478 63.6133 23.814C65.0605 25.6802 65.7842 28.2764 65.7842 31.6025V31.9263ZM62.2612 31.5264C62.2612 29.2031 61.7661 27.3687 60.7759 26.0229C59.7856 24.6772 58.4272 24.0044 56.7007 24.0044C54.5679 24.0044 52.9683 24.9502 51.9019 26.8418V36.687C52.9556 38.5659 54.5679 39.5054 56.7388 39.5054C58.4272 39.5054 59.7666 38.8389 60.7568 37.5059C61.7598 36.1602 62.2612 34.167 62.2612 31.5264ZM74.106 42H70.583V12.75H74.106V42ZM92.4824 42C92.2793 41.5938 92.1143 40.8701 91.9873 39.8291C90.3496 41.5303 88.3945 42.3809 86.1221 42.3809C84.0908 42.3809 82.4214 41.8096 81.1138 40.667C79.8188 39.5117 79.1714 38.0518 79.1714 36.2871C79.1714 34.1416 79.9839 32.4785 81.6089 31.2979C83.2466 30.1045 85.5444 29.5078 88.5024 29.5078H91.9302V27.8892C91.9302 26.6577 91.562 25.6802 90.8257 24.9565C90.0894 24.2202 89.0039 23.8521 87.5693 23.8521C86.3125 23.8521 85.2588 24.1694 84.4082 24.8042C83.5576 25.439 83.1323 26.207 83.1323 27.1084H79.5903C79.5903 26.0801 79.9521 25.0898 80.6758 24.1377C81.4121 23.1729 82.4023 22.4111 83.6465 21.8525C84.9033 21.2939 86.2808 21.0146 87.7788 21.0146C90.1528 21.0146 92.0127 21.6113 93.3584 22.8047C94.7041 23.9854 95.4023 25.6167 95.4531 27.6987V37.1821C95.4531 39.0737 95.6943 40.5781 96.1768 41.6953V42H92.4824ZM86.6362 39.3149C87.7407 39.3149 88.7881 39.0293 89.7783 38.458C90.7686 37.8867 91.4858 37.144 91.9302 36.23V32.0024H89.1689C84.8525 32.0024 82.6943 33.2656 82.6943 35.792C82.6943 36.8965 83.0625 37.7598 83.7988 38.3818C84.5352 39.0039 85.481 39.3149 86.6362 39.3149ZM107.412 36.8394L112.211 21.3955H115.981L107.698 45.1802C106.416 48.6079 104.378 50.3218 101.585 50.3218L100.918 50.2646L99.6045 50.0171V47.1606L100.557 47.2368C101.75 47.2368 102.677 46.9956 103.337 46.5132C104.01 46.0308 104.562 45.1484 104.994 43.8662L105.774 41.7715L98.4238 21.3955H102.271L107.412 36.8394Z" fill="black"/>
</svg>
